<?xml version="1.0" standalone="yes"?>
<svg xmlns="http://www.w3.org/2000/svg" width="560" height="560">
<path style="fill:#080606; stroke:none;" d="M341 17L340.972 19.0555L340.917 20.0555L340.611 21.9445L340.25 23.5L340 25L341.5 25.0833L342.056 25.2222L343.056 25.3889L344 25.6111L346 25.9167L347 25.9722L348.944 26L349.944 26L352 26L352 36L341 36L341 52L346 52L348 52L349 52.0278L350 52.0833L352 52.3889L354 52.7778L355 52.9167L357 53L359 53L363 53L374 53L377 53L379 53L381 53.0278L382 53.0833L383.944 53.3889L385.5 53.75L387 54L387.25 52.5L387.611 50.9445L387.917 49L387.972 48L388 47L388 45L388 39L388 34L388 32L387.972 31L387.917 30L387.611 28L387.389 27L387.083 25L387.028 24L387 22L387 20.0555L387 17L341 17M323 59L323 66L323 68L323.028 69L323.083 70L323.389 72L323.611 73L323.917 75L323.972 76L324 78L324 82L324 93L324 98L324 100L324 101L324 102L323.972 104L323.75 106L323.5 107L322.5 109L320.917 110.917L319.972 111.778L318 113.306L317 113.972L316 114.611L314 115.75L313 116.25L311 117.389L309 118.667L307 120L306 120.694L305 121.389L303 122.861L302 123.639L301 124.389L300 125.194L298 126.806L296 128.389L294 130.056L293 130.944L292.028 131.778L290.222 133.361L289.389 134.139L287.778 135.639L286.056 137.222L285.222 138.083L283.639 139.917L282.139 141.583L280.667 142.917L280.25 143.306L279 144L279.333 145.5L279.639 146.056L280.111 147.056L281.417 149L283.083 151L285 153L286 154L289 157L291 159L292 160L294 161.917L295 162.778L296 163.611L297.917 165.194L299.583 166.806L300.306 167.583L301.694 169L303.222 170.389L305.028 171.833L306 172.528L308 173.417L309 173.5L311 173.111L312 172.722L314 171.528L316 169.917L317 168.972L319 167L320 166L322 164L323 163L324 162L326 160.083L327 159.222L329 157.611L330 156.806L332 155.194L333 154.389L335 152.861L336 152.139L337 151.389L338 150.694L340 149.333L342 148.028L343 147.389L344 146.806L346 145.611L347 145L349 143.889L351 143L352 142.611L354 141.833L355 141.444L356 141.167L358 140.639L359 140.361L360 140.139L362 139.639L363 139.389L365 139.083L366 139.028L368 139L370 139.028L371 139.083L373 139.389L374 139.639L376 140.139L378 140.639L379 140.861L380 141.167L381 141.444L382 141.833L384 142.611L386 143.389L387 143.833L388 144.25L389 144.778L390 145.25L391 145.833L392 146.389L394 147.611L396 148.806L397 149.389L398 150.028L399 150.667L400 151.333L402 152.667L404 154L406 155.417L408 157L410 158.611L412 160.222L413 161.083L415 163L417 164.917L419 166.611L419.972 167.389L421.778 169.083L423.389 171L425.083 173L426.028 174L427.972 176L428.917 177L430.611 179L431.389 180L433.056 182L433.944 183L435.611 185L437.194 187L438.806 189L439.583 190L441 192L441.694 193L442.389 194L443.139 195L444.611 197L446 199L447.333 201L448.667 203L449.972 205L450.611 206L451.75 208L452.25 209L453.389 211L454.611 213L455.806 215L456.389 216L457.611 218L458.167 219L458.75 220L459.222 221L460.222 223L460.778 224L461.222 225L461.778 226L462.75 228L463.167 229L463.611 230L464.389 232L464.833 233L465.25 234L466.222 236L466.75 237L467.167 238L467.611 239L468.389 241L469.194 243L469.611 244L470.389 246L471.194 248L471.611 249L471.972 250L472.333 251L473 253L474 256L476 262L476.667 264L477 265L477.611 267L477.861 268L478.389 270L478.694 271L479.306 273L479.611 274L480.139 276L480.361 277L480.639 278L480.861 279L481.139 280L481.611 282L481.806 283L482.194 285L482.611 287L482.806 288L483.194 290L483.389 291L483.611 292L483.806 293L484.194 295L484.389 296L484.778 298L484.917 299L485.083 301L485.389 303L485.778 305L485.917 306L486.083 308L486.389 310L486.611 311L486.917 313L486.972 314L487 316L487.028 318L487.083 319L487.389 321L487.611 322L487.917 324L487.972 325L488 327L488 328L488 331L488 343L488 359L488 364L488 365L487.972 367L487.917 368L487.611 370L487.389 371L487.083 373L487 375L487 377L487 378L486.972 380L486.917 381L486.611 383L486.389 384L486.083 386L486.028 387L486 389L485.972 391L485.917 392L485.611 394L485.389 395L485.083 397L485.028 398L485 400L484.972 401L484.917 402L484.611 404L484.389 405L484.083 407L484.028 408L483.972 410L483.778 412L483.389 414L483.083 416L483.028 417L483 418L483 420L482.972 422L482.917 423L482.611 425L482.389 426L482.083 428L482.028 429L482 431L481.972 433L481.917 434L481.611 436L481.389 437L481.083 439L480.917 441L480.778 442L480.389 444L480.056 446L479.944 447L479.611 449L479.361 450L478.861 452L478.639 453L478.361 454L478.139 455L477.611 457L477 459L476.667 460L475.972 462L475.611 463L474.75 465L474.222 466L473.778 467L473.222 468L472.778 469L472.222 470L471.75 471L471.167 472L469.972 474L468.583 476L467.778 477L466.917 478L465 479.917L463 481.583L462 482.306L460 483.611L459 484.167L458 484.722L457 485.167L456 485.611L455 485.972L453 486.667L451 487.306L450 487.611L448 488.139L447 488.361L446 488.611L444 488.944L443 489.056L441 489.389L440 489.611L438 489.917L437 489.972L435 490L433 490L425 490L311 490L293 490L288 490L286 490L285 489.972L284 489.917L282 489.611L281 489.389L280 489.194L278 488.806L277 488.583L276 488.306L274 487.611L272 486.75L271 486.222L270 485.75L268 484.528L266 482.917L264 481L262.028 479L261.083 478L259.417 476L258.694 475L257.389 473L256.25 471L255.778 470L255.25 469L254.833 468L254.389 467L253.667 465L253.333 464L253 463L252.417 461L252.194 460L251.806 458L251.611 457L251.389 456L251.083 454L251.028 453L251 451L251 450L251 447L251 442L251 440L251.028 439L251.083 438L251.389 436L251.611 435L251.944 433L252.056 432L252.389 430L252.611 429L252.944 427L253.056 426L253.389 424L253.639 423L254.139 421L254.361 420L254.861 418L255.139 417L255.361 416L255.639 415L255.861 414L256.389 412L256.694 411L257.333 409L257.667 408L258.667 405L260.667 399L261.333 397L261.667 396L262.389 394L262.806 393L263.611 391L264.333 389L264.667 388L265.389 386L265.806 385L266.611 383L267.333 381L267.667 380L268.028 379L268.389 378L269.194 376L269.611 375L270.333 373L271 371L272.667 366L273.667 363L274 362L274.306 361L274.611 360L275.139 358L275.361 357L275.639 356L275.861 355L276.139 354L276.611 352L276.806 351L277.194 349L277.389 348L277.611 347L277.806 346L278.194 344L278.389 343L278.611 342L278.917 340L278.972 339L279.083 337L279.389 335L279.611 334L279.917 332L279.972 331L280 329L280.028 328L280.083 327L280.389 325L280.611 324L280.917 322L280.972 321L281 320L281 318L281 313L281 295L281 292L281 290L280.917 288L280.75 287L280.5 286.028L279.5 284.25L278.75 283.5L276.972 282.5L275 282.167L273 282.417L271 283L270 283.333L268 284.028L267 284.389L265 285.25L264 285.778L262 286.778L260 287.778L259 288.222L258 288.778L257 289.222L255 290.25L254 290.833L253 291.389L252 292.028L251 292.667L249 293.972L247 295.194L246 295.833L245 296.444L243 297.861L242 298.639L241 299.389L239 301.083L238 302.028L236 304L234.028 306L233.083 307L231.389 309L230.639 310L229.167 312L228.444 313L227.25 315L226.806 315.944L226.222 316.944L226 317.5L225 319L224.417 316.944L224.222 315.944L224.083 315L224 313L224 312L224 310L224 308L224.028 307L224.083 306L224.389 304L224.778 302L224.917 301L225 299L225 298L225 296L225 290L225 288L225.028 286L225.083 285L225.389 283L225.611 282L225.917 280L225.972 279L226 278L226 276L226.028 274L226.083 273L226.389 271L226.611 270L226.917 268L226.972 267L227 266L227.028 264L227.083 263L227.389 261L227.611 260L227.806 259L228.194 257L228.389 256L228.611 255L228.944 253L229.056 252L229.389 250L229.806 248L230.194 246L230.389 245L230.639 244L230.861 243L231.139 242L231.361 241.056L231.75 239.5L232 238L233.5 238.5L234.056 238.806L236 239.556L238 240.139L239 240.361L240 240.639L241 240.861L242 241.139L244 241.611L246 241.917L248 242.083L250 242.389L251 242.611L253 242.889L254 242.889L256 242.611L257 242.389L259 242.056L260 241.944L262 241.611L264 241.139L265 240.861L267 240.306L269 239.611L270 239.167L271 238.75L272 238.222L273 237.778L274 237.222L275 236.75L276 236.167L278 234.972L280 233.583L282 231.917L283.972 230L284.917 229L285.778 228L286.583 227L288 225L289.306 223L289.917 222L290.944 220L291.361 219L292.194 217L292.611 216L292.972 215L293.611 213L294.139 211L294.361 210L294.778 208L294.917 207L295 205L295 204L295 203L295 200L295 197L295 196L294.917 194L294.611 192L294.361 191L294.139 190L293.556 188L293.167 187L292.389 185L291.611 183L291.167 182L290.75 181L290.222 180L289.75 179L289.167 178L288.611 177L287.306 175L285.806 173L284.194 171.083L283.389 170.222L282.611 169.389L281.778 168.611L279.972 166.944L278 165.222L277 164.417L276 163.694L274 162.389L272 161.25L271 160.778L270 160.25L268 159.389L267 159.028L265 158.389L264 158.139L263 157.861L262 157.639L261 157.389L259 157.083L258 157.028L256 157L255 157L253 157L251 157L250 157L248 157.083L246 157.389L245 157.611L243 158L242 158.222L241 158.472L239 159.194L238 159.611L236 160.389L235 160.833L234 161.25L233 161.778L232 162.25L231 162.833L230 163.389L228 164.694L227 165.417L225 167.083L223 169L221.028 171L220.083 172L218.417 174L217.694 175L216.389 177L215.833 178L215.25 179L214.778 180L214.222 181L213.778 182L212.778 184L212.222 185L211.25 187L210.833 188L210.389 189L209.611 191L209.194 192L208.389 194L207.611 196L206.806 198L206.389 199L206.028 200L205.333 202L205 203L204.417 205L204.194 206L204 207L203.583 209L203.306 210L202.694 212L202.194 214L201.806 216L201.611 217L201.139 219L200.861 220L200.639 221L200.389 222L200.194 223L199.806 225L199.389 227L199.194 228L198.806 230L198.611 231L198.389 232L198.194 233L197.806 235L197.611 236L197.389 237L197.056 239L196.944 240L196.778 241L196.389 243L196.083 245L196.028 246L195.972 248L195.917 249L195.611 251L195.389 252L195.083 254L195.028 255L195 257L195 257.944L195 261L194 259.5L193.778 258.944L193.194 257.944L192.778 257L192.222 256L191.222 254L190.75 253L189.611 251L188.389 249L187.25 247L186.75 246L185.611 244L184.972 243L184.333 242L183 240L181.611 238L180.861 237L179.361 235L178.611 234L176.917 232L175 230L173 228L171 226L170 225.028L169 224.083L167 222.389L166 221.639L164 220.139L163 219.389L161 218L160 217.333L158 216.028L157 215.389L155 214.25L154 213.778L153 213.222L152 212.778L151 212.222L150 211.75L149 211.167L148 210.639L147 210.056L145 209.056L144 208.639L142 207.75L141 207.25L139 206.389L137 205.611L135 204.806L134 204.389L133 204.028L132 203.667L131 203.333L129 202.667L123 200.667L121 200L119 199.417L118 199.194L116 198.806L115 198.611L113 198.139L112 197.861L111 197.639L109 197.222L108 197.083L106 197L105 197L103 197.111L101.083 197.722L100.25 198.333L98.8611 200.028L98.2778 201L97.4722 203L97.0833 205L97 207L97 208L97 210L97 215L97 217L97 218L97.0278 220L97.0833 221L97.3889 223L97.6111 224L97.9167 226L98.0278 228L98.0833 229L98.3889 231L98.7778 233L98.9444 234L99.0556 235L99.3889 237L99.6389 238L99.8611 239L100.389 241L100.694 242L101.306 244L101.611 245L101.861 246L102.444 248L102.833 249L103.611 251L104.389 253L105.25 255L105.75 256L106.611 258L107.389 260L107.806 260.944L108.194 261.944L108.5 262.5L109 264L107.5 263L106.944 262.778L105 261.75L104 261.167L102 260.056L100 259.056L99 258.639L97 257.75L95 256.778L94 256.25L93 255.833L92 255.389L90 254.611L88 253.806L87 253.389L85 252.611L83 251.806L82 251.389L81 251.028L80 250.667L78 250L76 249.333L75 249L73 248.389L72 248.139L71 247.861L69 247.389L68 247.222L67 247.056L65 246.778L64 246.611L63 246.389L61 246.083L59 246L58 246L57 246L55 246.028L54 246.083L52 246.389L51 246.611L49 247L48 247.222L47 247.472L45 248.194L44 248.639L43 249.056L41 250.083L40 250.694L38 252L36 253.417L35 254.222L34.0278 255.083L33.0833 256.028L31.3889 258L30.6389 259L29.1667 261L28.4444 262L27.8611 263L27.2778 264L26.3889 266L26.0278 267L25.3333 269L25 270L24.4167 272L24 274L23.6111 276L23.3889 277L23.0833 279L23.0278 280L23.0833 282L23.3889 284L23.8056 286L24.1944 288L24.4167 289L24.6944 290L25.3889 292L25.8333 293L26.2778 294L26.8333 295L27.3889 296L28.6944 298L29.4167 299L30.2222 300L31.0833 301L33 303L35 304.972L36 305.917L38 307.583L40 308.917L42 310L43 310.5L45 311.472L46 311.917L47 312.306L48 312.667L50 313.306L52 313.861L53 314.139L54 314.361L55 314.611L57 314.917L58 314.972L60 315L61 315L63 314.917L64 314.778L65 314.611L67 314.194L69 313.806L71 313.306L73 312.611L74 312.167L75 311.722L76 311.167L78 309.972L80 308.583L82 306.917L83.9167 305L85.5833 303L86.2778 302L86.9167 301L87.9167 299L88.3056 298L89 296.056L89.3333 295.056L89.5556 294.5L90 293L91.5 294.25L93.0556 295.417L94 296.139L95 296.861L96 297.639L98 299.139L99 299.861L100 300.639L101 301.361L103 302.861L104 303.611L105 304.306L106 305L108 306.333L110 307.611L111 308.167L112 308.75L114 309.75L114.944 310.139L116.5 310.722L118 311L116.5 311.722L115.944 311.75L114.944 311.944L113 311.917L111 311.611L110 311.389L108 311.083L106 310.972L105 310.917L103 310.611L102 310.389L100 310.083L99 310.028L97 310L96 310L94 310.083L93 310.222L91 310.611L89 310.917L87 311.083L86 311.222L84 311.611L82 311.944L81 312.056L79 312.389L78 312.639L77 312.861L75 313.389L74 313.694L73 314L71 314.667L69 315.333L68 315.667L67 316.028L66 316.389L65 316.806L63 317.639L62 318.056L61 318.528L60 319L58 320L56 321.056L55 321.639L54 322.194L52 323.389L50 324.694L48 326.139L47 326.861L46 327.639L45 328.389L43 330.083L41 332L39 334L37 336L35.0833 338L33.4167 340L32 342L31.3333 343L30 345L28.6667 347L28.0278 348L27.3889 349L26.25 351L25.7778 352L25.2222 353L24.7778 354L24.25 355L23.8333 356L23.3889 357L22.6667 359L22 361L21.3333 363L20.6944 365L20.3889 366L19.8611 368L19.6389 369L19.3889 370L19.0556 372L18.9444 373L18.7778 374L18.3889 376L18.0833 378L18.0278 379L17.9722 381L17.9167 382L17.6111 384L17.3889 385L17.0833 387L17.0278 388L17 389L17 391L17 397L17 399L17 401L17.0833 403L17.5 405L18.5 406.889L19.25 407.667L21.0278 408.667L23 408.861L24 408.667L25 408.278L26.9722 406.889L28.7778 405L30.3056 403L31.6667 401L32.3333 400L33.6111 398L34.8333 396L35.4722 395L37.0556 393L37.9444 392L39.6111 390L40.3889 389L42.0833 387L44 385L46 383L48 381L49 380.028L50 379.083L52 377.389L53 376.639L54 375.861L55 375.139L56 374.389L58 373L59 372.333L61 371.028L62 370.389L64 369.25L65 368.778L66 368.222L67 367.778L68 367.222L70 366.25L71 365.861L72 365.444L73 365.167L74 364.861L75 364.639L77 364.139L78 363.861L79 363.639L80 363.389L82 363.083L83 363.028L85 363L87 363L89 363L90 363.028L91 363.083L93 363.389L94 363.611L96 364L98 364.417L100 365L102 365.667L104 366.333L107 367.333L108 367.667L110 368.389L111 368.833L112 369.25L113 369.778L115 370.778L116 371.25L117 371.833L118 372.389L120 373.611L122 374.806L123 375.389L124 376.028L125 376.667L127 378L128 378.694L129 379.389L130 380.139L131 380.861L133 382.389L134 383.194L136 384.806L138 386.389L140 388.083L141 389.028L143 391L144 391.972L145 392.917L147 394.611L148 395.389L150 397.083L151 398.028L153 400L155 402L156.917 403.972L157.778 404.917L159.361 406.611L160.139 407.361L160.861 408.139L161.639 408.861L162.389 409.639L163.222 410.389L164.083 411.222L165.917 413L167.583 414.778L168.306 415.583L169.667 417L171 418.333L171.694 419L172.389 419.694L173.111 420.361L173.778 421.167L174.25 421.583L175 423L173.5 422.75L171.944 422.389L170 422.056L169 421.944L167 421.611L166 421.389L164 421.056L163 420.944L161 420.611L160 420.389L158 420.083L157 420.028L155 419.917L153 419.611L152 419.389L150 419.083L149 419.028L147 419L146 419L144 419L134 419L127 419L125 419L123 419.028L122 419.083L120 419.389L118 419.778L117 419.917L115 420.083L114 420.222L112 420.611L110 420.944L109 421.056L107 421.389L106 421.639L104 422.139L103 422.361L102 422.639L101 422.861L99 423.361L98 423.639L97 423.861L95 424.361L94 424.639L93 424.861L91 425.389L90 425.694L89 426L88 426.333L86 427L84 427.667L83 428.028L82 428.389L81 428.833L79 429.861L78.0278 430.472L76.3333 432.083L75.7222 433.028L75.3611 434L75.3333 436L76.1111 437.917L76.7222 438.778L77.4167 439.583L79.0833 440.917L80.0278 441.444L81 441.944L83 442.806L84 443.194L85 443.611L87 444.306L88 444.611L89 444.861L91 445.389L92 445.694L93 446L95 446.667L97 447.333L98 447.667L99 448.028L100 448.389L101 448.806L103 449.611L105 450.389L107 451.194L108 451.611L110 452.333L111 452.667L112 453.028L113 453.389L114 453.806L116 454.611L118 455.389L120 456.25L121 456.75L123 457.611L125 458.389L127 459.194L128 459.611L130 460.389L131 460.833L132 461.25L133 461.778L135 462.778L136 463.222L137 463.778L138 464.222L139 464.778L141 465.778L142 466.222L143 466.778L144 467.222L146 468.25L147 468.833L148 469.389L150 470.667L151 471.333L152 471.972L154 473.194L155 473.833L156 474.444L157 475.167L158 475.861L159 476.639L161 478.139L163 479.639L164 480.389L166 482.056L167 482.944L168.972 484.611L169.917 485.361L171.611 486.861L172.389 487.639L174.083 489.222L175.028 490.083L177 492L178 493L181 496L185 500L187 502L188.917 504L190.611 505.972L192.222 507.778L194.028 509.389L196 511.083L197 512.028L199 514L201 515.972L202 516.917L204 518.611L205 519.389L207 521L209 522.583L211 524L212 524.667L214 526L216 527.333L217 527.972L218 528.611L220 529.75L221 530.222L223 531.222L224 531.778L225 532.222L226 532.75L228 533.611L229 533.972L230 534.333L231 534.667L233 535.333L235 536L236 536.306L237 536.583L239 536.944L240 537.056L241 537.222L243 537.611L245 537.917L246 537.972L248 538.083L250 538.389L251 538.611L253 538.917L254 538.972L256 539L258 539L261 539L267 539L269 539L271 538.972L272 538.917L274 538.611L275 538.389L277 538.083L278 538.028L280 538L284 538L294 538L340 538L355 538L360 538L362 538L363 538L365 538.083L367 538.389L368 538.611L370 538.917L372 539L374 539L377 539L387 539L416 539L426 539L430 539L432 539.028L433 539.083L435 539.389L436 539.611L438 539.917L439 539.972L440 540L442 540L448 540L451 540L453 540L455 539.972L456 539.917L458 539.611L460 539.222L461 539.083L463 538.917L465 538.611L466 538.361L467 538.139L469 537.611L470 537.306L472 536.667L474 535.972L475 535.611L477 534.75L479 533.75L480 533.139L481 532.556L482 531.833L484 530.361L485 529.611L486.972 527.917L487.917 526.972L489.611 525L490.361 524L491.861 522L492.611 521L493.972 519L494.611 518L495.75 516L496.222 515L496.778 514L497.222 513L497.778 512L498.222 511L499.222 509L499.778 508L500.222 507L501.222 505L501.75 504L502.167 503L502.611 502L503.389 500L504.194 498L504.611 497L505.389 495L506.194 493L506.611 492L506.972 491L507.333 490L507.667 489L508.333 487L508.667 486L509.389 484L510.194 482L510.611 481L510.972 480L511.333 479L512 477L512.611 475L513.139 473L513.389 472L513.694 471L514.306 469L514.611 468L515.139 466L515.361 465L515.639 464L515.861 463L516.139 462L516.639 460L516.861 459L517.139 458L517.361 457L517.861 455L518.139 454L518.361 453L518.639 452L518.861 451L519.361 449L519.611 448L519.944 446L520.056 445L520.389 443L520.611 442L520.917 440L521.083 438L521.222 437L521.611 435L521.778 434L521.917 433L522.083 431L522.222 430L522.611 428L522.917 426L522.972 425L523.028 423L523.083 422L523.389 420L523.611 419L523.917 417L523.972 416L524 414L524.028 412L524.083 411L524.389 409L524.611 408L524.917 406L524.972 405L525 403L525 402L525 400L525.028 398L525.083 397L525.389 395L525.611 394L525.917 392L525.972 391L526 389L526 385L526 374L526 371L526 369L526.083 367L526.389 365L526.611 364L526.917 362L527 360L527 359L527 357L527 355L526.972 354L526.917 353L526.611 351L526.222 349L526.083 348L526 346L526 345L526 342L526 335L526 333L525.972 331L525.917 330L525.611 328L525.389 327L525.083 325L525.028 324L525 322L524.972 320L524.917 319L524.611 317L524.389 316L524.083 314L524.028 313L524 311L523.972 310L523.917 309L523.611 307L523.389 306L523.083 304L522.972 302L522.917 301L522.611 299L522.389 298L522.056 296L521.778 294L521.611 293L521.222 291L521.083 290L520.917 288L520.611 286L520.389 285L520.194 284L519.806 282L519.611 281L519.389 280L519.194 279L518.806 277L518.611 276L518.139 274L517.861 273L517.639 272L517.389 271L517.194 270L516.806 268L516.611 267L516.139 265L515.861 264L515.639 263L515.139 261L514.861 260L514.639 259L514.361 258L514.139 257L513.611 255L513.306 254L512.694 252L512.389 251L512.139 250L511.611 248L511 246L510.667 245L509.667 242L508.667 239L508.333 238L507.611 236L507.194 235L506.389 233L506.028 232L505.667 231L505.333 230L504.611 228L504.194 227L503.389 225L502.611 223L501.75 221L501.25 220L500.389 218L499.611 216L498.75 214L497.778 212L497.222 211L496.778 210L496.222 209L495.778 208L494.778 206L494.222 205L493.778 204L492.778 202L492.222 201L491.778 200L491.222 199L490.778 198L489.75 196L489.167 195L488.611 194L487.389 192L486.806 191L485.611 189L484.389 187L483.194 185L482.611 184L481.333 182L480 180L478 177L476.667 175L476 174L475.306 173L474.611 172L473.139 170L472.361 169L471.639 168L470.861 167L470.139 166L469.361 165L467.861 163L467.139 162L465.611 160L464.778 159L463.917 158L462.028 156L461.083 155L459.389 153L458.611 152L456.917 150L455.972 149L454 147L453 146L450 143L447 140L446 139L445 138L443 136.083L442 135.222L440 133.611L438 131.944L437 131.056L435 129.389L434 128.611L433 127.806L431 126.194L430 125.389L429 124.611L428 123.806L426 122.194L425 121.389L424 120.639L423 119.861L421 118.389L420 117.694L418 116.306L417 115.611L416 114.861L414 113.444L412 112.194L411 111.611L409 110.306L408 109.583L406.083 107.917L404.5 106L403.944 105L403.5 104L403.083 102L403 100L403 99L403 98L403 96L403 91L403 60L373 60L363 60L360 60L358 60L356 59.9167L354 59.6111L353 59.3889L351 59.0833L350 59.0278L348 59L347 59L341 59L323 59M99 113.389L98 113.611L96 114L94 114.417L92 115L90 115.667L89 116.028L87 116.833L86 117.278L85 117.833L83 119.028L81 120.417L80 121.222L79.0278 122.083L78.0833 123.028L76.4167 125L75.0278 127L74.3889 128L73.8333 129L72.7778 131L72.25 132L71.8333 133L71.3889 134L71.0278 135L70.4167 137L70.0556 139L69.9444 140L69.7778 141L69.6111 142L69.3889 143L69.0833 145L69 147L69 148L69.0833 150L69.3889 152L69.6389 153L69.8611 154L70.1389 155L70.6944 157L71.3333 159L72.0278 161L72.8333 163L73.2778 164L73.8333 165L74.3889 166L75.0278 167L76.4167 169L77.2222 170L78.0833 171L80 172.972L81 173.917L83 175.583L84 176.306L86 177.611L87 178.167L88 178.722L89 179.167L90 179.611L92 180.306L93 180.583L94 180.778L95 180.944L97 181.222L98 181.389L100 181.778L101 181.917L103 182L105 181.917L107 181.611L109 181.194L111 180.806L112 180.583L114 179.972L115 179.611L117 178.75L118 178.222L119 177.75L121 176.611L122 175.972L124 174.583L126 172.917L127 171.972L127.972 171L129.778 169L130.583 168L131.306 167L132.611 165L133.722 163L134.167 162L134.611 161L134.972 160L135.583 158L135.806 157L136.194 155L136.611 153L136.778 152L136.917 151L137 149L137 148L136.917 146L136.611 144L136.389 143L136 141L135.583 139L135 137L134.333 135L133.972 134L133.167 132L132.722 131L132.167 130L131.611 129L130.306 127L129.583 126L128.778 125L127.917 124L126 122L125 121.028L124 120.083L122 118.472L120 117.25L119 116.778L118 116.25L116 115.389L114 114.694L113 114.417L111 114L109 113.611L108 113.389L106 113.083L104 113L103 113L102 113.028L101 113.083L99 113.389M171 165.389L169 165.806L167 166.194L166 166.417L165 166.694L163 167.389L162 167.833L161 168.278L159 169.444L157.083 170.861L156.222 171.611L155.417 172.306L154.694 173L154 173.694L152.667 175.222L151.389 177.028L150.278 179L149.833 180L149.028 182L148.694 183L148.417 184L148.083 186L148.028 187L148 188L148 190L148 192L148.083 194L148.222 195L148.694 197L149 198L149.694 200L150.083 201L151.083 203L152.333 205L153.694 207L154.417 208L156.083 209.917L158 211.583L159 212.306L161 213.583L163 214.583L165 215.306L166 215.611L167 215.861L169 216.361L170 216.611L172 216.917L173 216.972L175 216.917L177 216.611L179 216.194L181 215.806L182 215.583L184 214.972L185 214.583L187 213.583L188 212.972L189 212.306L191 210.778L191.972 209.917L192.917 208.972L194.528 207L195.139 206L195.75 205L196.75 203L197.167 202L197.611 201L198.306 199L198.583 198L198.917 196L199 194L199 192L199 190L199 189L198.917 187L198.583 185L198.306 184L197.611 182L197.167 181L196.75 180L196.222 179L195.75 178L194.528 176L193.75 175L192.917 174L191 172L189 170.111L188 169.306L187 168.639L185 167.639L184 167.194L182 166.444L181 166.167L179 165.639L177 165.222L176 165.083L175 165.028L173 165.083L171 165.389M55 192.389L54 192.639L53 192.861L51 193.444L49 194.25L48 194.778L47 195.25L45.0278 196.472L44.0833 197.25L43.2222 198.083L41.6944 200L40.4167 202L39.4722 204L39.1667 205L38.6389 207L38.3889 208L38.0833 210L38.0278 212L38.0833 213L38.3889 215L38.8056 217L39.1944 219L39.4167 220L40.0278 222L40.4167 223L41.4167 225L42.6944 227L43.4167 228L45.0833 229.917L47 231.528L48 232.139L50 233.167L51 233.611L53 234.306L54 234.583L56 234.917L57 234.972L59 235L60 235L62 234.917L64 234.611L65 234.361L66 234.139L68 233.528L70 232.528L71 231.833L71.9722 231.139L73.7778 229.611L74.6111 228.778L75.3611 227.917L76.8333 226L78.1389 224L78.7222 223L79.1389 222L79.5556 221L80.1389 219L80.3611 218L80.6111 217L80.9167 215L80.9722 214L81 213L80.9167 211L80.6111 209L80.3611 208L79.8333 206L79.5556 205L79.1389 204L78.7222 203L78.1389 202L77.5278 201L75.9167 199L74.9722 198.028L73 196.25L72 195.472L70 194.278L68 193.389L67 193.028L65 192.417L63 192.083L61 192L60 192L59 192L57 192.083L55 192.389M110 264L109 265L110 264M90 374.389L89 374.639L88 374.861L86 375.444L84 376.278L83 376.833L82 377.389L80.0833 378.694L78.4167 380.222L77.0278 382.028L76.3889 383L75.8333 384L75.25 385L74.7778 386L73.8611 388L73.4722 389L73.25 390L73.0833 391L73 393L73 395L73 397L73.0833 399L73.2222 400L73.6944 402L74.3333 404L75.0833 406L75.5556 407L76.0833 408L77.4167 410L79.0833 411.972L80.0278 412.917L82 414.528L84 415.722L85 416.139L86 416.556L87 416.833L89 417.361L90 417.611L92 417.889L93 417.889L95 417.611L97 417.194L99 416.778L100 416.528L101 416.167L103 415.361L104 414.944L106 413.917L108 412.583L109.917 410.917L110.75 409.972L111.528 409L112.722 407L113.167 406L113.611 405L114.306 403L114.583 402L114.917 400L114.972 399L115 397L115 396L115 395L114.917 393L114.583 391L113.972 389L113.167 387L112.722 386L111.556 384L110.139 382.083L109.361 381.222L108.611 380.389L106.917 378.861L105.972 378.167L105 377.444L103 376.278L102 375.833L101 375.389L99 374.694L98 374.417L97 374.222L95 374.028L94 374L92 374.083L90 374.389M284 441.389L283 441.639L281 442.167L280 442.472L278 443.472L276 444.861L275.028 445.639L274.083 446.389L272.472 448.083L271.861 449.028L271.25 450L270.778 451L269.833 453L269.389 454L268.694 456L268.417 457L268.222 458L268.083 459L268 461L268 462L268 463L268.028 465L268.083 466L268.417 468L268.694 469L269.389 471L269.833 472L270.278 473L271.472 475L273.083 477L274.028 477.972L275 478.917L277 480.528L278 481.139L279 481.722L280 482.139L281 482.556L282 482.833L284 483.361L285 483.611L287 483.917L288 483.972L290 484L292 483.917L294 483.583L295 483.306L297 482.667L299 481.917L300 481.444L301 480.917L303 479.583L304.917 477.917L306.528 476L307.139 475L308.167 473L308.611 472L309.306 470L309.583 469L309.778 468L310.056 466L310.306 464L310.389 463L310.389 462L310.194 460L310.056 459L309.778 457L309.583 456L308.972 454L308.583 453L307.583 451L306.306 449L304.778 447.083L302.972 445.417L301 444.083L299 443.083L297 442.333L295 441.694L293 441.222L292 441.083L290 441L289 441L288 441L286 441.083L284 441.389z"/>
</svg>
